<svg xmlns="http://www.w3.org/2000/svg" width="26" height="25" fill="none"><path fill="#fff" stroke="#0E333D" d="M15.677.5c.322 0 .655.154.918.472l8.3 10.033c.264.32.424.772.424 1.258 0 .485-.16.936-.424 1.257l-8.3 10.033c-.262.303-.59.448-.906.445-.32-.003-.65-.158-.909-.472-.261-.316-.422-.761-.425-1.242-.004-.48.149-.93.407-1.253v.001l4.993-6.227.651-.813H1.845c-.323 0-.657-.154-.92-.472C.662 13.2.5 12.75.5 12.264s.16-.938.426-1.258c.262-.318.596-.472.919-.472h18.561l-.651-.813-4.992-6.227-.005-.006-.095-.127a2.03 2.03 0 0 1-.331-1.13c0-.487.161-.938.426-1.258.262-.318.596-.472.919-.472Z"/></svg>