<svg xmlns="http://www.w3.org/2000/svg" width="216" height="49" fill="none"><path fill="#fff" d="M66.513 29.351q0-.951-.293-1.709-.268-.78-1.025-1.416-.757-.659-2.124-1.293-1.368-.636-3.54-1.319a45 45 0 0 1-4.59-1.758q-2.148-.976-3.809-2.27-1.635-1.319-2.588-3.052-.927-1.733-.927-4.028 0-2.221.976-4.029.977-1.83 2.735-3.125 1.757-1.318 4.15-2.026 2.416-.708 5.298-.708 3.93 0 6.86 1.416t4.541 3.882q1.636 2.466 1.636 5.64h-7.275q0-1.563-.66-2.735-.635-1.196-1.953-1.88-1.294-.683-3.271-.683-1.905 0-3.174.586-1.27.561-1.904 1.538a3.8 3.8 0 0 0-.635 2.148q0 .904.44 1.636.463.732 1.367 1.367t2.221 1.196q1.319.561 3.052 1.099 2.906.879 5.103 1.977 2.221 1.1 3.71 2.466 1.49 1.368 2.247 3.1.756 1.735.756 3.932 0 2.32-.903 4.15t-2.612 3.1-4.077 1.93q-2.37.659-5.298.659a20 20 0 0 1-5.2-.684 15.8 15.8 0 0 1-4.663-2.124 10.7 10.7 0 0 1-3.32-3.613q-1.246-2.198-1.246-5.2h7.349q0 1.66.512 2.807.513 1.148 1.44 1.856.953.708 2.247 1.025a12.3 12.3 0 0 0 2.88.317q1.905 0 3.126-.537 1.245-.536 1.83-1.49.612-.951.611-2.148M92.636 32.696V20.93q0-1.27-.415-2.173a3.1 3.1 0 0 0-1.294-1.44q-.855-.513-2.221-.513-1.172 0-2.027.415-.855.39-1.318 1.147-.464.732-.464 1.734h-7.031q0-1.685.781-3.199t2.27-2.66q1.49-1.172 3.54-1.832 2.076-.66 4.64-.66 3.075 0 5.468 1.026t3.76 3.077q1.39 2.05 1.391 5.126v11.304q0 2.173.269 3.565.268 1.367.781 2.392v.415h-7.104q-.513-1.074-.782-2.685a22 22 0 0 1-.244-3.272m.928-10.132.049 3.98h-3.93q-1.393 0-2.418.317-1.025.318-1.684.904-.66.56-.977 1.318a4.6 4.6 0 0 0-.293 1.66q0 .904.415 1.636.415.708 1.196 1.123.782.39 1.831.39 1.587 0 2.76-.634 1.17-.635 1.806-1.563.66-.927.683-1.758l1.856 2.979q-.39 1-1.074 2.075a9.7 9.7 0 0 1-1.685 2.026q-1.025.929-2.466 1.538-1.44.587-3.418.587-2.514 0-4.565-1.001-2.026-1.026-3.223-2.808-1.172-1.807-1.172-4.102 0-2.075.782-3.686.78-1.612 2.294-2.71 1.539-1.123 3.834-1.685 2.295-.585 5.322-.586zM112.167 17.315V48.81h-7.031V12.237h6.519zm16.724 7.837v.513q0 2.88-.683 5.347-.66 2.466-1.954 4.297a9.3 9.3 0 0 1-3.222 2.832q-1.905 1-4.395 1-2.417 0-4.199-.976-1.782-.977-3.003-2.734-1.196-1.783-1.929-4.126a32.7 32.7 0 0 1-1.123-5.03v-1.342q.391-2.881 1.123-5.274.733-2.417 1.929-4.175 1.221-1.782 2.979-2.758 1.782-.977 4.174-.977 2.516 0 4.419.952a8.7 8.7 0 0 1 3.223 2.734q1.318 1.783 1.978 4.248.683 2.466.683 5.47m-7.056.513v-.513a15.3 15.3 0 0 0-.293-3.1q-.269-1.44-.878-2.515-.587-1.075-1.563-1.66-.953-.61-2.319-.61-1.44 0-2.466.463a4.1 4.1 0 0 0-1.636 1.343q-.634.879-.952 2.1-.318 1.22-.391 2.759v3.393q.123 1.806.684 3.247.561 1.416 1.733 2.246t3.077.83q1.391 0 2.343-.61.953-.635 1.538-1.733.61-1.1.855-2.54.268-1.44.268-3.1M140.122 1.153v37.5h-7.032v-37.5zm-1.001 23.365h-1.929q.024-2.76.732-5.079.708-2.343 2.027-4.052 1.318-1.734 3.149-2.686 1.855-.952 4.102-.952 1.953 0 3.54.561a6.6 6.6 0 0 1 2.758 1.758q1.173 1.197 1.807 3.15.635 1.953.635 4.736v16.7h-7.08V21.904q0-1.758-.513-2.759-.488-1.025-1.44-1.44-.928-.44-2.295-.44-1.514 0-2.588.562-1.05.561-1.685 1.563-.635.976-.927 2.294a13 13 0 0 0-.293 2.832M168.71 12.237v26.416h-7.055V12.237zm-7.495-6.885q0-1.537 1.075-2.539 1.074-1 2.88-1 1.783 0 2.857 1 1.098 1.002 1.098 2.54t-1.098 2.538q-1.074 1.001-2.857 1.001-1.806 0-2.88-1-1.075-1.001-1.075-2.54M181.552 17.999v20.654h-7.031V12.237h6.616zm7.959-5.933-.122 6.519q-.513-.074-1.245-.122a13 13 0 0 0-1.294-.073q-1.489 0-2.588.39-1.074.366-1.806 1.099a4.8 4.8 0 0 0-1.075 1.782q-.342 1.05-.39 2.393l-1.416-.44q0-2.564.512-4.712.513-2.172 1.49-3.784 1-1.611 2.441-2.49t3.296-.88q.586 0 1.196.099a4.4 4.4 0 0 1 1.001.22M204.501 39.142q-3.076 0-5.517-.977-2.441-1-4.151-2.759a12.3 12.3 0 0 1-2.587-4.077q-.904-2.344-.904-4.98v-.977q0-3.003.855-5.493.854-2.49 2.441-4.322a10.7 10.7 0 0 1 3.906-2.807q2.296-1 5.176-1.001 2.808 0 4.981.928 2.173.927 3.637 2.636 1.49 1.71 2.246 4.102.757 2.369.757 5.273v2.93h-20.996v-4.687h14.087v-.538q0-1.464-.537-2.612a4.15 4.15 0 0 0-1.562-1.855q-1.05-.684-2.686-.684-1.392 0-2.393.61t-1.635 1.71q-.61 1.098-.928 2.587-.293 1.465-.293 3.223v.977q0 1.587.439 2.93.465 1.342 1.294 2.319a5.9 5.9 0 0 0 2.051 1.513q1.221.537 2.759.537 1.904 0 3.54-.732 1.66-.757 2.856-2.27l3.418 3.71q-.83 1.197-2.27 2.295-1.416 1.1-3.418 1.807-2.002.684-4.566.684M33.212 39.71h-5.006c-.443 0-.867-.175-1.18-.485a1.65 1.65 0 0 1-.49-1.17v-13.24c0-.44-.175-.86-.488-1.171a1.68 1.68 0 0 0-1.18-.485H14.855c-.443 0-.867.175-1.18.485s-.49.731-.49 1.17v13.24c0 .44-.175.86-.488 1.17-.313.311-.737.486-1.18.486H6.51a3.35 3.35 0 0 1-2.36-.97 3.3 3.3 0 0 1-.977-2.34V23.143a3.5 3.5 0 0 1-1.763-.65 3.5 3.5 0 0 1-1.171-1.459 3.12 3.12 0 0 1 .76-3.489l16.262-16.46A3.64 3.64 0 0 1 19.861 0a3.66 3.66 0 0 1 2.6 1.084L38.75 17.572c.458.437.773 1.001.904 1.619a3.1 3.1 0 0 1-.17 1.843 3.5 3.5 0 0 1-1.171 1.46 3.5 3.5 0 0 1-1.763.649V36.4c0 .878-.352 1.72-.978 2.34-.626.621-1.475.97-2.36.97"/></svg>